Patient4_TMGait_0pt5_02_right_36_GRF.mot
version=1
nRows=39
nColumns=19
inDegrees=no
endheader
time	F1x	F1y	F1z	M1x	M1y	M1z	F2x	F2y	F2z	M2x	M2y	M2z	EC1x	EC1y	EC1z	EC2x	EC2y	EC2z
47.02	-12.2386	780.8872	69.6026	-282.7607	-66.8069	756.867	3.7197	-2.5081	8.0828	-2.1149	-10.6596	-7.2231	-0.0592	0.0182	-0.0073	-0.0462	0.0165	0.9585
47.0329	-8.5081	774.2323	68.7167	-279.7782	-65.4329	748.0221	2.246	-0.85102	5.4912	-1.1184	-7.0867	-3.916	-0.0592	0.0182	-0.0073	-0.0462	0.0165	0.9585
47.0457	-4.8938	765.865	67.6241	-276.2451	-63.6703	737.0811	1.0114	0.54728	3.2714	-0.25748	-4.0482	-1.1175	-0.0592	0.0182	-0.0073	-0.0462	0.0165	0.9585
47.0586	-1.536	756.4216	66.387	-272.429	-61.5727	724.7278	0.071775	1.6327	1.5624	0.41796	-1.721	1.039	-0.0592	0.0182	-0.0073	-0.0462	0.0165	0.9585
47.0714	1.5438	746.7422	65.0734	-268.6483	-59.2178	711.8258	-0.58594	2.4212	0.36531	0.90763	-0.09761	2.5665	-0.0592	0.0182	-0.0073	-0.0462	0.0165	0.9585
47.0843	4.4122	737.6808	63.7669	-265.2132	-56.7044	699.2144	-1.0078	2.9446	-0.39614	1.232	0.93029	3.5361	-0.0592	0.0182	-0.0073	-0.0462	0.0165	0.9585
47.0971	7.1711	730.0087	62.5323	-262.3953	-54.1114	687.6246	-1.2703	3.2455	-0.82217	1.4186	1.5093	4.0659	-0.0592	0.0182	-0.0073	-0.0462	0.0165	0.9585
47.11	9.9424	724.3571	61.4238	-260.4106	-51.5031	677.6462	-1.4275	3.3336	-1.0081	1.4839	1.7751	4.2249	-0.0592	0.0182	-0.0073	-0.0462	0.0165	0.9585
47.1229	12.8405	721.1823	60.4685	-259.4102	-48.9141	669.7026	-1.5507	3.1939	-1.0377	1.4308	1.8489	4.06	-0.0592	0.0182	-0.0073	-0.0462	0.0165	0.9585
47.1357	15.9543	720.7503	59.6945	-259.4684	-46.3779	664.0591	-1.664	2.7596	-0.97244	1.2443	1.8116	3.5355	-0.0592	0.0182	-0.0073	-0.0462	0.0165	0.9585
47.1486	19.325	723.0785	59.116	-260.5612	-43.9201	660.7747	-1.7935	1.9466	-0.85915	0.89873	1.7231	2.5899	-0.0592	0.0182	-0.0073	-0.0462	0.0165	0.9585
47.1614	22.938	727.8703	58.7694	-262.5458	-41.5955	659.6537	-1.9193	0.65222	-0.72177	0.35963	1.6038	1.122	-0.0592	0.0182	-0.0073	-0.0462	0.0165	0.9585
47.1743	26.7223	734.5302	58.6675	-265.1695	-39.4471	660.2481	-2.0023	-1.2029	-0.57392	-0.40255	1.4528	-0.94376	-0.0592	0.0182	-0.0073	-0.0462	0.0165	0.9585
47.1871	30.5532	742.1857	58.8387	-268.0784	-37.5495	661.8893	-1.9727	-3.638	-0.41525	-1.3937	1.2419	-3.6285	-0.0592	0.0182	-0.0073	-0.0462	0.0165	0.9585
47.2	34.2776	749.778	59.2658	-270.8573	-35.9474	663.7537	-1.7109	-6.5394	-0.24721	-2.5666	0.92798	-6.8172	-0.0592	0.0182	-0.0073	-0.0462	0.0165	0.9585
47.2129	37.7155	756.1589	59.9178	-273.0669	-34.6863	664.9367	-1.0841	-9.5624	-0.062187	-3.7824	0.45115	-10.1362	-0.0592	0.0182	-0.0073	-0.0462	0.0165	0.9585
47.2257	40.692	760.1785	60.7078	-274.2783	-33.7674	664.5259	0.084926	-12.0354	0.13768	-4.7726	-0.25041	-12.8612	-0.0592	0.0182	-0.0073	-0.0462	0.0165	0.9585
47.2386	43.0624	760.8056	61.5526	-274.117	-33.1874	661.7051	1.9565	-12.8327	0.34914	-5.0926	-1.23	-13.7536	-0.0592	0.0182	-0.0073	-0.0462	0.0165	0.9585
47.2514	44.7436	757.2994	62.335	-272.3276	-32.8895	655.8749	4.6563	-10.3107	0.54591	-4.092	-2.4992	-11.0051	-0.0592	0.0182	-0.0073	-0.0462	0.0165	0.9585
47.2643	45.729	749.2706	62.9677	-268.791	-32.8126	646.7048	8.1799	-2.2678	0.68503	-0.90117	-3.9952	-2.1818	-0.0592	0.0182	-0.0073	-0.0462	0.0165	0.9585
47.2771	46.0922	736.6084	63.3401	-263.5002	-32.8484	634.0692	12.3173	13.9328	0.68122	5.5228	-5.5273	15.6215	-0.0592	0.0182	-0.0073	-0.0462	0.0165	0.9585
47.29	45.9252	719.3161	63.3344	-256.4979	-32.867	617.9282	16.5091	41.051	0.41586	16.2718	-6.7329	45.4438	-0.0592	0.0182	-0.0073	-0.0462	0.0165	0.9585
47.3029	45.3345	697.3004	62.7805	-247.8027	-32.6808	598.1382	19.7034	81.3763	-0.27145	32.2507	-7.0156	89.8109	-0.0592	0.0182	-0.0073	-0.0462	0.0165	0.9585
47.3157	44.3748	670.2595	61.4889	-237.3691	-32.0994	574.3873	20.3345	135.788	-1.5351	53.8095	-5.5954	149.6973	-0.0592	0.0182	-0.0073	-0.0462	0.0165	0.9585
47.3286	43.0681	637.7281	59.2624	-225.0979	-30.9399	546.2169	16.6505	202.7081	-3.4374	80.3253	-1.7357	223.3699	-0.0592	0.0182	-0.0073	-0.0462	0.0165	0.9585
47.3414	41.3902	599.2741	55.9763	-210.8986	-29.0957	513.1881	7.9715	277.39	-6.112	109.9045	4.9424	305.5716	-0.0592	0.0182	-0.0073	-0.0462	0.0165	0.9585
47.3543	39.2836	554.7766	51.6377	-194.7742	-26.5876	475.1236	-3.8689	352.594	-10.1361	139.6094	14.3086	388.2183	-0.0592	0.0182	-0.0073	-0.0462	0.0165	0.9585
47.3671	36.6492	504.5764	46.4614	-176.8587	-23.616	432.2351	-16.1689	420.7934	-15.805	166.4231	25.5085	462.701	-0.0592	0.0182	-0.0073	-0.0462	0.0165	0.9585
47.38	33.3405	449.5131	40.8569	-157.4171	-20.5462	385.2095	-26.9032	478.0186	-22.5233	188.7632	37.0606	524.3511	-0.0592	0.0182	-0.0073	-0.0462	0.0165	0.9585
47.3929	29.2557	390.8489	35.2968	-136.8381	-17.7753	335.1161	-35.072	524.3338	-29.4994	206.6714	47.686	573.1654	-0.0592	0.0182	-0.0073	-0.0462	0.0165	0.9585
47.4057	24.3875	330.3253	30.1065	-115.6688	-15.5472	283.4549	-40.4713	562.056	-35.8145	221.1025	56.3445	611.7505	-0.0592	0.0182	-0.0073	-0.0462	0.0165	0.9585
47.4186	18.8677	270.0602	25.4128	-94.6003	-13.9085	232.0267	-43.3901	594.1291	-41.1056	233.232	62.7885	643.471	-0.0592	0.0182	-0.0073	-0.0462	0.0165	0.9585
47.4314	12.9542	212.4094	21.206	-74.427	-12.7573	182.8351	-44.3205	623.2337	-45.2258	244.1046	67.1195	671.3872	-0.0592	0.0182	-0.0073	-0.0462	0.0165	0.9585
47.4443	7.0807	159.7191	17.443	-55.9588	-11.9066	137.8534	-43.8786	651.2527	-48.5403	254.4126	70.0069	697.7513	-0.0592	0.0182	-0.0073	-0.0462	0.0165	0.9585
47.4571	1.8067	113.9342	14.0841	-39.8833	-11.1261	98.7179	-42.665	678.8993	-51.4642	264.3735	72.1672	723.5686	-0.0592	0.0182	-0.0073	-0.0462	0.0165	0.9585
47.47	-2.3095	76.2102	11.0725	-26.6256	-10.1724	66.3965	-41.2489	705.613	-54.4918	273.715	74.3503	748.4801	-0.0592	0.0182	-0.0073	-0.0462	0.0165	0.9585
47.4829	-4.9142	46.8217	8.3593	-16.2992	-8.8849	41.1245	-40.1039	730.0672	-57.8143	281.9055	76.941	771.2626	-0.0592	0.0182	-0.0073	-0.0462	0.0165	0.9585
47.4957	-5.9594	25.2761	5.924	-8.7387	-7.2382	22.5125	-39.4376	750.9057	-61.3736	288.4495	79.952	790.5734	-0.0592	0.0182	-0.0073	-0.0462	0.0165	0.9585
47.5086	-5.7327	10.5923	3.8032	-3.5992	-5.3751	9.7419	-39.2361	767.1991	-64.767	293.0542	82.9634	805.4512	-0.0592	0.0182	-0.0073	-0.0462	0.0165	0.9585
